<svg xmlns="http://www.w3.org/2000/svg" width="35.503" height="35.503" viewBox="0 0 35.503 35.503">
  <path id="insta-icon" d="M17.751,0c-4.822,0-5.425.022-7.318.107A13.09,13.09,0,0,0,6.124.932,8.693,8.693,0,0,0,2.979,2.979,8.661,8.661,0,0,0,.932,6.124a13.051,13.051,0,0,0-.825,4.309C.018,12.327,0,12.929,0,17.751s.022,5.424.107,7.318a13.1,13.1,0,0,0,.825,4.309,8.705,8.705,0,0,0,2.047,3.145,8.681,8.681,0,0,0,3.145,2.047,13.106,13.106,0,0,0,4.309.825c1.893.089,2.5.107,7.318.107s5.425-.022,7.318-.107a13.136,13.136,0,0,0,4.309-.825,9.072,9.072,0,0,0,5.192-5.192,13.1,13.1,0,0,0,.825-4.309c.089-1.893.107-2.5.107-7.318s-.022-5.424-.107-7.318a13.128,13.128,0,0,0-.825-4.309,8.712,8.712,0,0,0-2.047-3.145A8.649,8.649,0,0,0,29.379.932,13.059,13.059,0,0,0,25.07.107C23.176.018,22.574,0,17.751,0Zm0,3.2c4.738,0,5.3.024,7.175.105a9.78,9.78,0,0,1,3.294.614,5.842,5.842,0,0,1,3.37,3.368,9.8,9.8,0,0,1,.611,3.294c.084,1.873.1,2.435.1,7.174s-.022,5.3-.109,7.174a9.99,9.99,0,0,1-.623,3.294,5.636,5.636,0,0,1-1.33,2.044A5.538,5.538,0,0,1,28.2,31.59a9.873,9.873,0,0,1-3.306.611c-1.885.084-2.439.1-7.188.1s-5.3-.022-7.188-.109a10.066,10.066,0,0,1-3.308-.623,5.5,5.5,0,0,1-2.04-1.33A5.39,5.39,0,0,1,3.84,28.2a10.074,10.074,0,0,1-.621-3.306c-.067-1.864-.09-2.439-.09-7.166s.024-5.3.09-7.191a10.063,10.063,0,0,1,.621-3.3A5.262,5.262,0,0,1,5.172,5.191a5.25,5.25,0,0,1,2.04-1.328A9.825,9.825,0,0,1,10.5,3.24c1.886-.067,2.441-.089,7.188-.089l.067.044Zm0,5.441a9.115,9.115,0,1,0,9.115,9.115A9.115,9.115,0,0,0,17.751,8.636Zm0,15.032a5.917,5.917,0,1,1,5.917-5.917A5.915,5.915,0,0,1,17.751,23.668ZM29.358,8.277a2.13,2.13,0,1,1-2.13-2.129A2.132,2.132,0,0,1,29.358,8.277Z" fill="#fff"/>
</svg>
