<svg id="security-bl-icon" xmlns="http://www.w3.org/2000/svg" width="28.931" height="40.522" viewBox="0 0 28.931 40.522">
  <g id="Calque_176_-_copie" data-name="Calque 176 - copie" transform="translate(0 0)">
    <g id="Group_90" data-name="Group 90" transform="translate(0 0)">
      <path id="Path_81" data-name="Path 81" d="M3054.137,630.005c-.51-.2-1.073-.4-1.782-.63l-4.023-1.09a36.584,36.584,0,0,0-7.674-.816,41.434,41.434,0,0,0-7.677.816,36.991,36.991,0,0,0-4.022,1.09c-.711.235-1.273.434-1.784.63a1.618,1.618,0,0,0-.984,1.446V646.8a1.631,1.631,0,0,0,.977,1.447,36.615,36.615,0,0,0,26.976,0,1.631,1.631,0,0,0,.977-1.447V631.451A1.619,1.619,0,0,0,3054.137,630.005Zm-11.887,8.818v5.387a1.411,1.411,0,0,1-.726,1.242,1.614,1.614,0,0,1-2.461-1.362v-5.268a3.139,3.139,0,0,1-1.593-2.7,3.2,3.2,0,0,1,4.456-2.939,2.958,2.958,0,0,1,1.665,1.671A3.127,3.127,0,0,1,3042.25,638.823Z" transform="translate(-3026.191 -610.301)" fill="#2c2e34"/>
      <path id="Path_82" data-name="Path 82" d="M3043.588,548.031c0-3.275,2.916-7.76,6.512-8.523,5.354-2.127,11.453,3.562,11.453,8.6v5.764l2.716,1.09V548.1a11.7,11.7,0,1,0-23.4,0v6.853a6.594,6.594,0,0,1,2.715-1.09Z" transform="translate(-3038.105 -536.405)" fill="#2c2e34"/>
    </g>
  </g>
</svg>
