<svg xmlns="http://www.w3.org/2000/svg" width="42.604" height="35.503" viewBox="0 0 42.604 35.503">
  <path id="tw-icon" d="M38.224,12.229c.027.388.027.777.027,1.165,0,11.843-8.786,25.49-24.843,25.49A24.222,24.222,0,0,1,0,34.862a17.61,17.61,0,0,0,2.109.111,17.207,17.207,0,0,0,10.84-3.828,8.778,8.778,0,0,1-8.164-6.213,10.738,10.738,0,0,0,1.649.139,9.014,9.014,0,0,0,2.3-.305,8.906,8.906,0,0,1-7-8.792v-.111A8.626,8.626,0,0,0,5.677,17a9.127,9.127,0,0,1-2.7-11.982,24.617,24.617,0,0,0,18,9.375,10.366,10.366,0,0,1-.216-2.052,8.844,8.844,0,0,1,8.732-8.959,8.609,8.609,0,0,1,6.38,2.829,16.928,16.928,0,0,0,5.542-2.163,8.9,8.9,0,0,1-3.839,4.937A17.156,17.156,0,0,0,42.6,7.6a19.044,19.044,0,0,1-4.379,4.632Z" transform="translate(0 -3.381)" fill="#fff"/>
</svg>
