<svg xmlns="http://www.w3.org/2000/svg" width="30" height="25" viewBox="0 0 30 25">
  <path id="twitter-blue-icon" d="M31.413,7.462a12.216,12.216,0,0,1-3.535,1,6.3,6.3,0,0,0,2.708-3.49,12.057,12.057,0,0,1-3.91,1.53,6.081,6.081,0,0,0-4.495-2,6.232,6.232,0,0,0-6.154,6.309,6.313,6.313,0,0,0,.159,1.439A17.311,17.311,0,0,1,3.5,5.652a6.426,6.426,0,0,0-.833,3.171,6.361,6.361,0,0,0,2.746,5.254,5.9,5.9,0,0,1-2.8-.788v.078a6.273,6.273,0,0,0,4.94,6.185,6.059,6.059,0,0,1-1.621.221,5.674,5.674,0,0,1-1.157-.117,6.185,6.185,0,0,0,5.753,4.382,12.13,12.13,0,0,1-9.116,2.611A16.913,16.913,0,0,0,10.835,29.5c11.335,0,17.527-9.616,17.527-17.956,0-.273-.006-.547-.019-.814A12.7,12.7,0,0,0,31.413,7.462Z" transform="translate(-1.413 -4.5)" fill="#0076bd"/>
</svg>
