<svg id="warranty-bl-icon" xmlns="http://www.w3.org/2000/svg" width="32.68" height="40.522" viewBox="0 0 32.68 40.522">
  <g id="Group_35" data-name="Group 35" transform="translate(0 0)">
    <g id="Group_33" data-name="Group 33" transform="translate(0 0)">
      <path id="Path_60" data-name="Path 60" d="M423.791,294.519l-.36-.137a35.03,35.03,0,0,1-7.909-4.509,23.558,23.558,0,0,1-5.5-5.716,14.8,14.8,0,0,1-2.557-8.212v-18.1l.991-.055a47.445,47.445,0,0,0,4.965-.627,41.2,41.2,0,0,0,9.926-2.96l.45-.21.45.21c6.624,3.1,14.823,3.583,14.905,3.587l.991.055v18.1a15.291,15.291,0,0,1-2.554,8.434,22.437,22.437,0,0,1-5.508,5.7,32.47,32.47,0,0,1-7.931,4.312ZM409.57,259.781v16.164a12.786,12.786,0,0,0,2.221,7.089,21.5,21.5,0,0,0,5.016,5.2,33.965,33.965,0,0,0,7.018,4.068,31.442,31.442,0,0,0,7.039-3.906,20.312,20.312,0,0,0,4.976-5.158,13.271,13.271,0,0,0,2.208-7.3V259.781c-.913-.086-2.4-.255-4.2-.571a44.158,44.158,0,0,1-10.047-2.928,44.146,44.146,0,0,1-10.039,2.928C411.963,259.525,410.482,259.695,409.57,259.781Z" transform="translate(-407.469 -253.996)" fill="#2c2e34"/>
    </g>
    <g id="Group_34" data-name="Group 34" transform="translate(16.606 4.122)">
      <path id="Path_61" data-name="Path 61" d="M1000.787,438.122l-.049-32.355a48.329,48.329,0,0,0,12.35,3.168v14.658a11.474,11.474,0,0,1-.512,3.407,12.452,12.452,0,0,1-1.377,2.95,18.416,18.416,0,0,1-4.455,4.706A29.2,29.2,0,0,1,1000.787,438.122Z" transform="translate(-1000.738 -405.767)" fill="#2c2e34"/>
    </g>
  </g>
</svg>
