<svg xmlns="http://www.w3.org/2000/svg" xmlns:xlink="http://www.w3.org/1999/xlink" width="210" height="210" viewBox="0 0 210 210">
  <defs>
    <filter id="Rectangle_499" x="0" y="0" width="210" height="210" filterUnits="userSpaceOnUse">
      <feOffset input="SourceAlpha"/>
      <feGaussianBlur stdDeviation="15" result="blur"/>
      <feFlood flood-opacity="0.161"/>
      <feComposite operator="in" in2="blur"/>
      <feComposite in="SourceGraphic"/>
    </filter>
  </defs>
  <g id="warranty-icon" transform="translate(-1315 -6766)">
    <g transform="matrix(1, 0, 0, 1, 1315, 6766)" filter="url(#Rectangle_499)">
      <g id="Rectangle_499-2" data-name="Rectangle 499" transform="translate(45 45)" fill="none" stroke="#fff" stroke-width="3">
        <rect width="120" height="120" rx="20" stroke="none"/>
        <rect x="1.5" y="1.5" width="117" height="117" rx="18.5" fill="none"/>
      </g>
    </g>
    <g id="Group_36" data-name="Group 36" transform="translate(987.531 6586.004)">
      <g id="Group_35" data-name="Group 35" transform="translate(407.469 253.996)">
        <g id="Group_33" data-name="Group 33" transform="translate(0 0)">
          <path id="Path_60" data-name="Path 60" d="M432.442,316l-.552-.21a53.592,53.592,0,0,1-12.1-6.9,36.043,36.043,0,0,1-8.408-8.746,22.642,22.642,0,0,1-3.912-12.565V259.891l1.517-.084a72.6,72.6,0,0,0,7.6-.959,63.037,63.037,0,0,0,15.187-4.529l.689-.322.689.322c10.134,4.737,22.68,5.482,22.805,5.489l1.517.084v27.686a23.4,23.4,0,0,1-3.908,12.9,34.325,34.325,0,0,1-8.427,8.725A49.68,49.68,0,0,1,433,315.8Zm-21.759-53.15v24.73a19.564,19.564,0,0,0,3.4,10.846,32.89,32.89,0,0,0,7.674,7.96,51.962,51.962,0,0,0,10.738,6.225,48.1,48.1,0,0,0,10.77-5.977,31.076,31.076,0,0,0,7.613-7.891,20.3,20.3,0,0,0,3.378-11.163v-24.73c-1.4-.131-3.667-.391-6.425-.874a67.559,67.559,0,0,1-15.371-4.48,67.543,67.543,0,0,1-15.36,4.48C414.344,262.455,412.079,262.715,410.683,262.846Z" transform="translate(-407.469 -253.996)" fill="#fff"/>
        </g>
        <g id="Group_34" data-name="Group 34" transform="translate(25.407 6.307)">
          <path id="Path_61" data-name="Path 61" d="M1000.812,455.271l-.074-49.5a73.944,73.944,0,0,0,18.9,4.847v22.427a17.555,17.555,0,0,1-.783,5.213,19.054,19.054,0,0,1-2.106,4.513,28.174,28.174,0,0,1-6.816,7.2A44.668,44.668,0,0,1,1000.812,455.271Z" transform="translate(-1000.738 -405.767)" fill="#fff"/>
        </g>
      </g>
    </g>
  </g>
</svg>
