<svg xmlns="http://www.w3.org/2000/svg" width="48.793" height="39.651" viewBox="0 0 48.793 39.651">
  <g id="weather-protection-bl-icon" transform="translate(0.538 0.51)">
    <path id="Path_83" data-name="Path 83" d="M2194.916,162.5a9.969,9.969,0,1,0-17.133-10.19,10.844,10.844,0,0,0-2.4-1.09,10.861,10.861,0,0,0-14.054,10.822c-.305.147-.606.281-.888.421a8.189,8.189,0,0,0-3.808,3.775l0-.007s-1.294,1.835-.573,5.557l0,.006a7.166,7.166,0,0,0,1.822,3.3,7.829,7.829,0,0,0,5.44,2.763c.32.027.642.038.963.039,1,0,2.009,0,3.014,0,5.28.011,22.455.029,24.127-.014a7.748,7.748,0,0,0,6.88-4.09A8.093,8.093,0,0,0,2194.916,162.5Zm-1.836,12.385a5.8,5.8,0,0,1-1.99.305q-3.134,0-6.268,0c-.2,0-13.873,0-17.524,0-1.066,0-2.131-.007-3.2,0a5.418,5.418,0,0,1-2.122-10.435c.645-.284,1.328-.48,2.039-.733a5.311,5.311,0,0,0,.076-.641c0-.514,0-1.03-.037-1.542a8.09,8.09,0,0,1,8.373-8.38,7.942,7.942,0,0,1,6.692,3.927c.38.593.707,1.22,1.077,1.862a7.022,7.022,0,0,0,1.7-.24,5.734,5.734,0,0,1,2.391.013,5.39,5.39,0,0,1,3.867,3.446c.246.627.452,1.27.69,1.947a5.351,5.351,0,0,0,.657.042c.48-.025.96-.087,1.441-.114a5.39,5.39,0,0,1,3.328.9h0l1.464,1.464a5.637,5.637,0,0,1,.85,2.018A5.474,5.474,0,0,1,2193.08,174.883Z" transform="translate(-2155.837 -139.265)" fill="#2c2e34" stroke="rgba(0,0,0,0)" stroke-width="1"/>
    <path id="Path_84" data-name="Path 84" d="M2201.3,140.611a.694.694,0,0,0,.582-.786l-.627-4.2a.691.691,0,0,0-1.367.2l.627,4.2A.694.694,0,0,0,2201.3,140.611Z" transform="translate(-2171.094 -135.032)" fill="#2c2e34" stroke="#2c2e34" stroke-width="1"/>
    <path id="Path_85" data-name="Path 85" d="M2187.391,146.74a.691.691,0,1,0,.978-.978l-3.005-3.005a.691.691,0,0,0-.978.978Z" transform="translate(-2165.656 -137.639)" fill="#2c2e34" stroke="#2c2e34" stroke-width="1"/>
    <path id="Path_86" data-name="Path 86" d="M2214.7,143.318a.693.693,0,0,0,.956-.207l2.3-3.574a.691.691,0,0,0-1.163-.748l-2.3,3.575A.692.692,0,0,0,2214.7,143.318Z" transform="translate(-2176.117 -136.224)" fill="#2c2e34" stroke="#2c2e34" stroke-width="1"/>
    <path id="Path_87" data-name="Path 87" d="M2221.461,155.384l4.054-1.275a.691.691,0,1,0-.414-1.319l-4.055,1.275a.691.691,0,0,0,.415,1.318Z" transform="translate(-2178.258 -141.173)" fill="#2c2e34" stroke="#2c2e34" stroke-width="1"/>
    <path id="Path_88" data-name="Path 88" d="M2225.525,167.872l-4.014-1.4a.691.691,0,1,0-.455,1.306l4.015,1.4a.691.691,0,0,0,.454-1.306Z" transform="translate(-2178.269 -145.911)" fill="#2c2e34" stroke="#2c2e34" stroke-width="1"/>
  </g>
</svg>
